{"asset":{"version":"2.0","generator":"Blockbench 5.1.4 glTF exporter"},"scenes":[{"nodes":[6,7,8,9,10,25],"name":"blockbench_export"}],"scene":0,"nodes":[{"name":"water-1","mesh":0},{"name":"w-1","children":[0]},{"name":"water-2","mesh":1},{"name":"w-2","children":[2]},{"name":"water-3","mesh":2},{"name":"w-3","children":[4]},{"translation":[0,-1,0],"name":"ocean","children":[1,3,5]},{"name":"cube","mesh":3},{"name":"cube","mesh":4},{"name":"cube","mesh":5},{"name":"cube","mesh":6},{"translation":[-19.75,0.75,-52.5],"name":"wall_west_1","mesh":7},{"translation":[-20.5,0.75,-4.75],"name":"wall_bridge_1","mesh":8},{"translation":[-47.5,0.75,12.75],"name":"wall_isle_1","mesh":9},{"rotation":[0,-0.7071067811865475,0,0.7071067811865476],"translation":[-39.25,0.75,13.375],"name":"wall_isle_4","mesh":10},{"translation":[-47.5,0.75,-13.75],"name":"wall_isle_2","mesh":11},{"rotation":[0,-0.7071067811865475,0,0.7071067811865476],"translation":[-39.25,0.75,-4.1875],"name":"wall_isle_3","mesh":12},{"rotation":[0,0.7071067811865475,0,0.7071067811865476],"translation":[-65.75,0.75,-5.5],"name":"wall_isle_5","mesh":13},{"translation":[-20.5,0.75,4.75],"name":"wall_bridge_2","mesh":14},{"rotation":[0,0.7071067811865475,0,0.7071067811865476],"translation":[-19.75,0.75,4.5],"name":"wall_west_2","mesh":15},{"translation":[-3.5,0.75,20.75],"name":"wall_west_3","mesh":16},{"rotation":[0,0.7071067811865475,0,0.7071067811865476],"translation":[-10.75,0.75,20.5],"name":"wall_west_4","mesh":17},{"translation":[67.1875,0.75,99.75],"name":"wall_south_1","mesh":18},{"rotation":[0,0.7071067811865475,0,0.7071067811865476],"translation":[99.75,0.75,21.3125],"name":"wall_east_1","mesh":19},{"translation":[99.5,0.75,-99.75],"name":"wall_north_1","mesh":20},{"name":"walls","children":[11,12,13,14,15,16,17,18,19,20,21,22,23,24]}],"bufferViews":[{"buffer":0,"byteOffset":0,"byteLength":48,"target":34962,"byteStride":12},{"buffer":0,"byteOffset":48,"byteLength":48,"target":34962,"byteStride":12},{"buffer":0,"byteOffset":96,"byteLength":32,"target":34962,"byteStride":8},{"buffer":0,"byteOffset":128,"byteLength":12,"target":34963},{"buffer":0,"byteOffset":140,"byteLength":48,"target":34962,"byteStride":12},{"buffer":0,"byteOffset":188,"byteLength":48,"target":34962,"byteStride":12},{"buffer":0,"byteOffset":236,"byteLength":32,"target":34962,"byteStride":8},{"buffer":0,"byteOffset":268,"byteLength":12,"target":34963},{"buffer":0,"byteOffset":280,"byteLength":48,"target":34962,"byteStride":12},{"buffer":0,"byteOffset":328,"byteLength":48,"target":34962,"byteStride":12},{"buffer":0,"byteOffset":376,"byteLength":32,"target":34962,"byteStride":8},{"buffer":0,"byteOffset":408,"byteLength":12,"target":34963},{"buffer":0,"byteOffset":420,"byteLength":288,"target":34962,"byteStride":12},{"buffer":0,"byteOffset":708,"byteLength":288,"target":34962,"byteStride":12},{"buffer":0,"byteOffset":996,"byteLength":192,"target":34962,"byteStride":8},{"buffer":0,"byteOffset":1188,"byteLength":24,"target":34963},{"buffer":0,"byteOffset":1212,"byteLength":12,"target":34963},{"buffer":0,"byteOffset":1224,"byteLength":12,"target":34963},{"buffer":0,"byteOffset":1236,"byteLength":24,"target":34963},{"buffer":0,"byteOffset":1260,"byteLength":288,"target":34962,"byteStride":12},{"buffer":0,"byteOffset":1548,"byteLength":288,"target":34962,"byteStride":12},{"buffer":0,"byteOffset":1836,"byteLength":192,"target":34962,"byteStride":8},{"buffer":0,"byteOffset":2028,"byteLength":12,"target":34963},{"buffer":0,"byteOffset":2040,"byteLength":12,"target":34963},{"buffer":0,"byteOffset":2052,"byteLength":12,"target":34963},{"buffer":0,"byteOffset":2064,"byteLength":12,"target":34963},{"buffer":0,"byteOffset":2076,"byteLength":12,"target":34963},{"buffer":0,"byteOffset":2088,"byteLength":12,"target":34963},{"buffer":0,"byteOffset":2100,"byteLength":288,"target":34962,"byteStride":12},{"buffer":0,"byteOffset":2388,"byteLength":288,"target":34962,"byteStride":12},{"buffer":0,"byteOffset":2676,"byteLength":192,"target":34962,"byteStride":8},{"buffer":0,"byteOffset":2868,"byteLength":12,"target":34963},{"buffer":0,"byteOffset":2880,"byteLength":12,"target":34963},{"buffer":0,"byteOffset":2892,"byteLength":12,"target":34963},{"buffer":0,"byteOffset":2904,"byteLength":12,"target":34963},{"buffer":0,"byteOffset":2916,"byteLength":12,"target":34963},{"buffer":0,"byteOffset":2928,"byteLength":12,"target":34963},{"buffer":0,"byteOffset":2940,"byteLength":288,"target":34962,"byteStride":12},{"buffer":0,"byteOffset":3228,"byteLength":288,"target":34962,"byteStride":12},{"buffer":0,"byteOffset":3516,"byteLength":192,"target":34962,"byteStride":8},{"buffer":0,"byteOffset":3708,"byteLength":12,"target":34963},{"buffer":0,"byteOffset":3720,"byteLength":12,"target":34963},{"buffer":0,"byteOffset":3732,"byteLength":12,"target":34963},{"buffer":0,"byteOffset":3744,"byteLength":12,"target":34963},{"buffer":0,"byteOffset":3756,"byteLength":12,"target":34963},{"buffer":0,"byteOffset":3768,"byteLength":12,"target":34963},{"buffer":0,"byteOffset":3780,"byteLength":288,"target":34962,"byteStride":12},{"buffer":0,"byteOffset":4068,"byteLength":288,"target":34962,"byteStride":12},{"buffer":0,"byteOffset":4356,"byteLength":192,"target":34962,"byteStride":8},{"buffer":0,"byteOffset":4548,"byteLength":72,"target":34963},{"buffer":0,"byteOffset":4620,"byteLength":288,"target":34962,"byteStride":12},{"buffer":0,"byteOffset":4908,"byteLength":288,"target":34962,"byteStride":12},{"buffer":0,"byteOffset":5196,"byteLength":192,"target":34962,"byteStride":8},{"buffer":0,"byteOffset":5388,"byteLength":72,"target":34963},{"buffer":0,"byteOffset":5460,"byteLength":288,"target":34962,"byteStride":12},{"buffer":0,"byteOffset":5748,"byteLength":288,"target":34962,"byteStride":12},{"buffer":0,"byteOffset":6036,"byteLength":192,"target":34962,"byteStride":8},{"buffer":0,"byteOffset":6228,"byteLength":72,"target":34963},{"buffer":0,"byteOffset":6300,"byteLength":288,"target":34962,"byteStride":12},{"buffer":0,"byteOffset":6588,"byteLength":288,"target":34962,"byteStride":12},{"buffer":0,"byteOffset":6876,"byteLength":192,"target":34962,"byteStride":8},{"buffer":0,"byteOffset":7068,"byteLength":72,"target":34963},{"buffer":0,"byteOffset":7140,"byteLength":288,"target":34962,"byteStride":12},{"buffer":0,"byteOffset":7428,"byteLength":288,"target":34962,"byteStride":12},{"buffer":0,"byteOffset":7716,"byteLength":192,"target":34962,"byteStride":8},{"buffer":0,"byteOffset":7908,"byteLength":72,"target":34963},{"buffer":0,"byteOffset":7980,"byteLength":288,"target":34962,"byteStride":12},{"buffer":0,"byteOffset":8268,"byteLength":288,"target":34962,"byteStride":12},{"buffer":0,"byteOffset":8556,"byteLength":192,"target":34962,"byteStride":8},{"buffer":0,"byteOffset":8748,"byteLength":72,"target":34963},{"buffer":0,"byteOffset":8820,"byteLength":288,"target":34962,"byteStride":12},{"buffer":0,"byteOffset":9108,"byteLength":288,"target":34962,"byteStride":12},{"buffer":0,"byteOffset":9396,"byteLength":192,"target":34962,"byteStride":8},{"buffer":0,"byteOffset":9588,"byteLength":72,"target":34963},{"buffer":0,"byteOffset":9660,"byteLength":288,"target":34962,"byteStride":12},{"buffer":0,"byteOffset":9948,"byteLength":288,"target":34962,"byteStride":12},{"buffer":0,"byteOffset":10236,"byteLength":192,"target":34962,"byteStride":8},{"buffer":0,"byteOffset":10428,"byteLength":72,"target":34963},{"buffer":0,"byteOffset":10500,"byteLength":288,"target":34962,"byteStride":12},{"buffer":0,"byteOffset":10788,"byteLength":288,"target":34962,"byteStride":12},{"buffer":0,"byteOffset":11076,"byteLength":192,"target":34962,"byteStride":8},{"buffer":0,"byteOffset":11268,"byteLength":72,"target":34963},{"buffer":0,"byteOffset":11340,"byteLength":288,"target":34962,"byteStride":12},{"buffer":0,"byteOffset":11628,"byteLength":288,"target":34962,"byteStride":12},{"buffer":0,"byteOffset":11916,"byteLength":192,"target":34962,"byteStride":8},{"buffer":0,"byteOffset":12108,"byteLength":72,"target":34963},{"buffer":0,"byteOffset":12180,"byteLength":288,"target":34962,"byteStride":12},{"buffer":0,"byteOffset":12468,"byteLength":288,"target":34962,"byteStride":12},{"buffer":0,"byteOffset":12756,"byteLength":192,"target":34962,"byteStride":8},{"buffer":0,"byteOffset":12948,"byteLength":72,"target":34963},{"buffer":0,"byteOffset":13020,"byteLength":288,"target":34962,"byteStride":12},{"buffer":0,"byteOffset":13308,"byteLength":288,"target":34962,"byteStride":12},{"buffer":0,"byteOffset":13596,"byteLength":192,"target":34962,"byteStride":8},{"buffer":0,"byteOffset":13788,"byteLength":72,"target":34963},{"buffer":0,"byteOffset":13860,"byteLength":288,"target":34962,"byteStride":12},{"buffer":0,"byteOffset":14148,"byteLength":288,"target":34962,"byteStride":12},{"buffer":0,"byteOffset":14436,"byteLength":192,"target":34962,"byteStride":8},{"buffer":0,"byteOffset":14628,"byteLength":72,"target":34963},{"buffer":0,"byteOffset":14700,"byteLength":288,"target":34962,"byteStride":12},{"buffer":0,"byteOffset":14988,"byteLength":288,"target":34962,"byteStride":12},{"buffer":0,"byteOffset":15276,"byteLength":192,"target":34962,"byteStride":8},{"buffer":0,"byteOffset":15468,"byteLength":72,"target":34963},{"buffer":0,"byteOffset":15540,"byteLength":12},{"buffer":0,"byteOffset":15552,"byteLength":36},{"buffer":0,"byteOffset":15588,"byteLength":12},{"buffer":0,"byteOffset":15600,"byteLength":36},{"buffer":0,"byteOffset":15636,"byteLength":12},{"buffer":0,"byteOffset":15648,"byteLength":36}],"buffers":[{"byteLength":15684,"uri":"data:application/octet-stream;base64,"}],"accessors":[{"bufferView":0,"componentType":5126,"count":4,"max":[100,0,100],"min":[-100,0,-100],"type":"VEC3"},{"bufferView":1,"componentType":5126,"count":4,"max":[0,1,0],"min":[0,1,0],"type":"VEC3"},{"bufferView":2,"componentType":5126,"count":4,"max":[1,1],"min":[0,0],"type":"VEC2"},{"bufferView":3,"componentType":5123,"count":6,"max":[3],"min":[0],"type":"SCALAR"},{"bufferView":4,"componentType":5126,"count":4,"max":[100,0,100],"min":[-100,0,-100],"type":"VEC3"},{"bufferView":5,"componentType":5126,"count":4,"max":[0,1,0],"min":[0,1,0],"type":"VEC3"},{"bufferView":6,"componentType":5126,"count":4,"max":[1,1],"min":[0,0],"type":"VEC2"},{"bufferView":7,"componentType":5123,"count":6,"max":[3],"min":[0],"type":"SCALAR"},{"bufferView":8,"componentType":5126,"count":4,"max":[100,0,100],"min":[-100,0,-100],"type":"VEC3"},{"bufferView":9,"componentType":5126,"count":4,"max":[0,1,0],"min":[0,1,0],"type":"VEC3"},{"bufferView":10,"componentType":5126,"count":4,"max":[1,1],"min":[0,0],"type":"VEC2"},{"bufferView":11,"componentType":5123,"count":6,"max":[3],"min":[0],"type":"SCALAR"},{"bufferView":12,"componentType":5126,"count":24,"max":[-39,0,13],"min":[-66,-1,-14],"type":"VEC3"},{"bufferView":13,"componentType":5126,"count":24,"max":[1,1,1],"min":[-1,-1,-1],"type":"VEC3"},{"bufferView":14,"componentType":5126,"count":24,"max":[0.4765625,1],"min":[0,0],"type":"VEC2"},{"bufferView":15,"componentType":5123,"count":12,"max":[7],"min":[0],"type":"SCALAR"},{"bufferView":16,"componentType":5123,"count":6,"max":[11],"min":[8],"type":"SCALAR"},{"bufferView":17,"componentType":5123,"count":6,"max":[15],"min":[12],"type":"SCALAR"},{"bufferView":18,"componentType":5123,"count":12,"max":[23],"min":[16],"type":"SCALAR"},{"bufferView":19,"componentType":5126,"count":24,"max":[-20,0,5],"min":[-39,-1,-5],"type":"VEC3"},{"bufferView":20,"componentType":5126,"count":24,"max":[1,1,1],"min":[-1,-1,-1],"type":"VEC3"},{"bufferView":21,"componentType":5126,"count":24,"max":[1.0859375,1],"min":[0,0],"type":"VEC2"},{"bufferView":22,"componentType":5123,"count":6,"max":[3],"min":[0],"type":"SCALAR"},{"bufferView":23,"componentType":5123,"count":6,"max":[7],"min":[4],"type":"SCALAR"},{"bufferView":24,"componentType":5123,"count":6,"max":[11],"min":[8],"type":"SCALAR"},{"bufferView":25,"componentType":5123,"count":6,"max":[15],"min":[12],"type":"SCALAR"},{"bufferView":26,"componentType":5123,"count":6,"max":[19],"min":[16],"type":"SCALAR"},{"bufferView":27,"componentType":5123,"count":6,"max":[23],"min":[20],"type":"SCALAR"},{"bufferView":28,"componentType":5126,"count":24,"max":[-11,0,21],"min":[-20,-1,-100],"type":"VEC3"},{"bufferView":29,"componentType":5126,"count":24,"max":[1,1,1],"min":[-1,-1,-1],"type":"VEC3"},{"bufferView":30,"componentType":5126,"count":24,"max":[1.5625,1.5625],"min":[0,0],"type":"VEC2"},{"bufferView":31,"componentType":5123,"count":6,"max":[3],"min":[0],"type":"SCALAR"},{"bufferView":32,"componentType":5123,"count":6,"max":[7],"min":[4],"type":"SCALAR"},{"bufferView":33,"componentType":5123,"count":6,"max":[11],"min":[8],"type":"SCALAR"},{"bufferView":34,"componentType":5123,"count":6,"max":[15],"min":[12],"type":"SCALAR"},{"bufferView":35,"componentType":5123,"count":6,"max":[19],"min":[16],"type":"SCALAR"},{"bufferView":36,"componentType":5123,"count":6,"max":[23],"min":[20],"type":"SCALAR"},{"bufferView":37,"componentType":5126,"count":24,"max":[100,0,100],"min":[-11,-1,-100],"type":"VEC3"},{"bufferView":38,"componentType":5126,"count":24,"max":[1,1,1],"min":[-1,-1,-1],"type":"VEC3"},{"bufferView":39,"componentType":5126,"count":24,"max":[1.5625,1.5625],"min":[0,0],"type":"VEC2"},{"bufferView":40,"componentType":5123,"count":6,"max":[3],"min":[0],"type":"SCALAR"},{"bufferView":41,"componentType":5123,"count":6,"max":[7],"min":[4],"type":"SCALAR"},{"bufferView":42,"componentType":5123,"count":6,"max":[11],"min":[8],"type":"SCALAR"},{"bufferView":43,"componentType":5123,"count":6,"max":[15],"min":[12],"type":"SCALAR"},{"bufferView":44,"componentType":5123,"count":6,"max":[19],"min":[16],"type":"SCALAR"},{"bufferView":45,"componentType":5123,"count":6,"max":[23],"min":[20],"type":"SCALAR"},{"bufferView":46,"componentType":5126,"count":24,"max":[0.25,1.25,47.5],"min":[-0.25,-0.75,-47.5],"type":"VEC3"},{"bufferView":47,"componentType":5126,"count":24,"max":[1,1,1],"min":[-1,-1,-1],"type":"VEC3"},{"bufferView":48,"componentType":5126,"count":24,"max":[0.00048828125,0.00390625],"min":[0,0],"type":"VEC2"},{"bufferView":49,"componentType":5123,"count":36,"max":[23],"min":[0],"type":"SCALAR"},{"bufferView":50,"componentType":5126,"count":24,"max":[1.0625,1.25,0.25],"min":[-18.5,-0.75,-0.25],"type":"VEC3"},{"bufferView":51,"componentType":5126,"count":24,"max":[1,1,1],"min":[-1,-1,-1],"type":"VEC3"},{"bufferView":52,"componentType":5126,"count":24,"max":[0.0078125,0.0078125],"min":[0,0],"type":"VEC2"},{"bufferView":53,"componentType":5123,"count":36,"max":[23],"min":[0],"type":"SCALAR"},{"bufferView":54,"componentType":5126,"count":24,"max":[8.5,1.25,0.25],"min":[-18.5,-0.75,-0.25],"type":"VEC3"},{"bufferView":55,"componentType":5126,"count":24,"max":[1,1,1],"min":[-1,-1,-1],"type":"VEC3"},{"bufferView":56,"componentType":5126,"count":24,"max":[0.0078125,0.0078125],"min":[0,0],"type":"VEC2"},{"bufferView":57,"componentType":5123,"count":36,"max":[23],"min":[0],"type":"SCALAR"},{"bufferView":58,"componentType":5126,"count":24,"max":[-0.375,1.25,0.25],"min":[-8.875,-0.75,-0.25],"type":"VEC3"},{"bufferView":59,"componentType":5126,"count":24,"max":[1,1,1],"min":[-1,-1,-1],"type":"VEC3"},{"bufferView":60,"componentType":5126,"count":24,"max":[0.0078125,0.0078125],"min":[0,0],"type":"VEC2"},{"bufferView":61,"componentType":5123,"count":36,"max":[23],"min":[0],"type":"SCALAR"},{"bufferView":62,"componentType":5126,"count":24,"max":[8.5625,1.25,0.25],"min":[-18.625,-0.75,-0.25],"type":"VEC3"},{"bufferView":63,"componentType":5126,"count":24,"max":[1,1,1],"min":[-1,-1,-1],"type":"VEC3"},{"bufferView":64,"componentType":5126,"count":24,"max":[0.0078125,0.0078125],"min":[0,0],"type":"VEC2"},{"bufferView":65,"componentType":5123,"count":36,"max":[23],"min":[0],"type":"SCALAR"},{"bufferView":66,"componentType":5126,"count":24,"max":[-0.375,1.25,0.25],"min":[-9.375,-0.75,-0.25],"type":"VEC3"},{"bufferView":67,"componentType":5126,"count":24,"max":[1,1,1],"min":[-1,-1,-1],"type":"VEC3"},{"bufferView":68,"componentType":5126,"count":24,"max":[0.0078125,0.0078125],"min":[0,0],"type":"VEC2"},{"bufferView":69,"componentType":5123,"count":36,"max":[23],"min":[0],"type":"SCALAR"},{"bufferView":70,"componentType":5126,"count":24,"max":[8.375,1.25,0.25],"min":[-18.5,-0.75,-0.25],"type":"VEC3"},{"bufferView":71,"componentType":5126,"count":24,"max":[1,1,1],"min":[-1,-1,-1],"type":"VEC3"},{"bufferView":72,"componentType":5126,"count":24,"max":[0.0078125,0.0078125],"min":[0,0],"type":"VEC2"},{"bufferView":73,"componentType":5123,"count":36,"max":[23],"min":[0],"type":"SCALAR"},{"bufferView":74,"componentType":5126,"count":24,"max":[1.0625,1.25,0.25],"min":[-18.5,-0.75,-0.25],"type":"VEC3"},{"bufferView":75,"componentType":5126,"count":24,"max":[1,1,1],"min":[-1,-1,-1],"type":"VEC3"},{"bufferView":76,"componentType":5126,"count":24,"max":[0.0078125,0.0078125],"min":[0,0],"type":"VEC2"},{"bufferView":77,"componentType":5123,"count":36,"max":[23],"min":[0],"type":"SCALAR"},{"bufferView":78,"componentType":5126,"count":24,"max":[-0.5625,1.25,0.25],"min":[-16.5,-0.75,-0.25],"type":"VEC3"},{"bufferView":79,"componentType":5126,"count":24,"max":[1,1,1],"min":[-1,-1,-1],"type":"VEC3"},{"bufferView":80,"componentType":5126,"count":24,"max":[0.0078125,0.0078125],"min":[0,0],"type":"VEC2"},{"bufferView":81,"componentType":5123,"count":36,"max":[23],"min":[0],"type":"SCALAR"},{"bufferView":82,"componentType":5126,"count":24,"max":[-7,1.25,0.25],"min":[-16.5,-0.75,-0.25],"type":"VEC3"},{"bufferView":83,"componentType":5126,"count":24,"max":[1,1,1],"min":[-1,-1,-1],"type":"VEC3"},{"bufferView":84,"componentType":5126,"count":24,"max":[0.0078125,0.0078125],"min":[0,0],"type":"VEC2"},{"bufferView":85,"componentType":5123,"count":36,"max":[23],"min":[0],"type":"SCALAR"},{"bufferView":86,"componentType":5126,"count":24,"max":[-0.3125,1.25,0.25],"min":[-79.5625,-0.75,-0.25],"type":"VEC3"},{"bufferView":87,"componentType":5126,"count":24,"max":[1,1,1],"min":[-1,-1,-1],"type":"VEC3"},{"bufferView":88,"componentType":5126,"count":24,"max":[0.0078125,0.0078125],"min":[0,0],"type":"VEC2"},{"bufferView":89,"componentType":5123,"count":36,"max":[23],"min":[0],"type":"SCALAR"},{"bufferView":90,"componentType":5126,"count":24,"max":[32.8125,1.25,0.25],"min":[-78.0625,-0.75,-0.25],"type":"VEC3"},{"bufferView":91,"componentType":5126,"count":24,"max":[1,1,1],"min":[-1,-1,-1],"type":"VEC3"},{"bufferView":92,"componentType":5126,"count":24,"max":[0.0078125,0.0078125],"min":[0,0],"type":"VEC2"},{"bufferView":93,"componentType":5123,"count":36,"max":[23],"min":[0],"type":"SCALAR"},{"bufferView":94,"componentType":5126,"count":24,"max":[121.125,1.25,0.25],"min":[-78.0625,-0.75,-0.25],"type":"VEC3"},{"bufferView":95,"componentType":5126,"count":24,"max":[1,1,1],"min":[-1,-1,-1],"type":"VEC3"},{"bufferView":96,"componentType":5126,"count":24,"max":[0.0078125,0.0078125],"min":[0,0],"type":"VEC2"},{"bufferView":97,"componentType":5123,"count":36,"max":[23],"min":[0],"type":"SCALAR"},{"bufferView":98,"componentType":5126,"count":24,"max":[0.5,1.25,0.25],"min":[-119.5,-0.75,-0.25],"type":"VEC3"},{"bufferView":99,"componentType":5126,"count":24,"max":[1,1,1],"min":[-1,-1,-1],"type":"VEC3"},{"bufferView":100,"componentType":5126,"count":24,"max":[0.0078125,0.0078125],"min":[0,0],"type":"VEC2"},{"bufferView":101,"componentType":5123,"count":36,"max":[23],"min":[0],"type":"SCALAR"},{"bufferView":102,"componentType":5126,"count":3,"max":[0.75],"min":[0],"type":"SCALAR"},{"bufferView":103,"componentType":5126,"count":3,"max":[1,1,1],"min":[0,0,0],"type":"VEC3"},{"bufferView":104,"componentType":5126,"count":3,"max":[0.5],"min":[0],"type":"SCALAR"},{"bufferView":105,"componentType":5126,"count":3,"max":[1,1,1],"min":[0,0,0],"type":"VEC3"},{"bufferView":106,"componentType":5126,"count":3,"max":[0.75],"min":[0],"type":"SCALAR"},{"bufferView":107,"componentType":5126,"count":3,"max":[1,1,1],"min":[0,0,0],"type":"VEC3"}],"materials":[{"pbrMetallicRoughness":{"metallicFactor":0,"roughnessFactor":1,"baseColorTexture":{"index":0}},"alphaMode":"MASK","alphaCutoff":0.05,"doubleSided":true},{"pbrMetallicRoughness":{"metallicFactor":0,"roughnessFactor":1,"baseColorTexture":{"index":1}},"alphaMode":"MASK","alphaCutoff":0.05,"doubleSided":true},{"pbrMetallicRoughness":{"metallicFactor":0,"roughnessFactor":1,"baseColorTexture":{"index":2}},"alphaMode":"MASK","alphaCutoff":0.05,"doubleSided":true},{"pbrMetallicRoughness":{"metallicFactor":0,"roughnessFactor":1,"baseColorTexture":{"index":3}},"alphaMode":"MASK","alphaCutoff":0.05,"doubleSided":true},{"pbrMetallicRoughness":{"metallicFactor":0,"roughnessFactor":1,"baseColorTexture":{"index":4}},"alphaMode":"MASK","alphaCutoff":0.05,"doubleSided":true},{"pbrMetallicRoughness":{"metallicFactor":0,"roughnessFactor":1},"alphaMode":"MASK","alphaCutoff":0.05,"doubleSided":true},{"pbrMetallicRoughness":{"metallicFactor":0,"roughnessFactor":1,"baseColorTexture":{"index":5}},"alphaMode":"MASK","alphaCutoff":0.05,"doubleSided":true}],"textures":[{"sampler":0,"source":0,"name":"water-1.png"},{"sampler":1,"source":1,"name":"water-2.png"},{"sampler":2,"source":2,"name":"water-3.png"},{"sampler":3,"source":3,"name":"wall.png"},{"sampler":4,"source":4,"name":"map.png"},{"sampler":5,"source":5,"name":"invisible.png"}],"samplers":[{"magFilter":9728,"minFilter":9728,"wrapS":33071,"wrapT":33071},{"magFilter":9728,"minFilter":9728,"wrapS":33071,"wrapT":33071},{"magFilter":9728,"minFilter":9728,"wrapS":33071,"wrapT":33071},{"magFilter":9728,"minFilter":9728,"wrapS":33071,"wrapT":33071},{"magFilter":9728,"minFilter":9728,"wrapS":33071,"wrapT":33071},{"magFilter":9728,"minFilter":9728,"wrapS":33071,"wrapT":33071}],"images":[{"mimeType":"image/png","name":"water-1.png","uri":"water-1.png"},{"mimeType":"image/png","name":"water-2.png","uri":"water-2.png"},{"mimeType":"image/png","name":"water-3.png","uri":"water-3.png"},{"mimeType":"image/png","name":"wall.png","uri":"wall.png"},{"mimeType":"image/png","name":"map.png","uri":"map.png"},{"mimeType":"image/png","name":"invisible.png","uri":"invisible.png"}],"meshes":[{"primitives":[{"mode":4,"attributes":{"POSITION":0,"NORMAL":1,"TEXCOORD_0":2},"indices":3,"material":0}]},{"primitives":[{"mode":4,"attributes":{"POSITION":4,"NORMAL":5,"TEXCOORD_0":6},"indices":7,"material":1}]},{"primitives":[{"mode":4,"attributes":{"POSITION":8,"NORMAL":9,"TEXCOORD_0":10},"indices":11,"material":2}]},{"primitives":[{"mode":4,"attributes":{"POSITION":12,"NORMAL":13,"TEXCOORD_0":14},"indices":15,"material":3},{"mode":4,"attributes":{"POSITION":12,"NORMAL":13,"TEXCOORD_0":14},"indices":16,"material":4},{"mode":4,"attributes":{"POSITION":12,"NORMAL":13,"TEXCOORD_0":14},"indices":17,"material":5},{"mode":4,"attributes":{"POSITION":12,"NORMAL":13,"TEXCOORD_0":14},"indices":18,"material":3}]},{"primitives":[{"mode":4,"attributes":{"POSITION":19,"NORMAL":20,"TEXCOORD_0":21},"indices":22,"material":5},{"mode":4,"attributes":{"POSITION":19,"NORMAL":20,"TEXCOORD_0":21},"indices":23,"material":5},{"mode":4,"attributes":{"POSITION":19,"NORMAL":20,"TEXCOORD_0":21},"indices":24,"material":4},{"mode":4,"attributes":{"POSITION":19,"NORMAL":20,"TEXCOORD_0":21},"indices":25,"material":5},{"mode":4,"attributes":{"POSITION":19,"NORMAL":20,"TEXCOORD_0":21},"indices":26,"material":3},{"mode":4,"attributes":{"POSITION":19,"NORMAL":20,"TEXCOORD_0":21},"indices":27,"material":5}]},{"primitives":[{"mode":4,"attributes":{"POSITION":28,"NORMAL":29,"TEXCOORD_0":30},"indices":31,"material":5},{"mode":4,"attributes":{"POSITION":28,"NORMAL":29,"TEXCOORD_0":30},"indices":32,"material":3},{"mode":4,"attributes":{"POSITION":28,"NORMAL":29,"TEXCOORD_0":30},"indices":33,"material":4},{"mode":4,"attributes":{"POSITION":28,"NORMAL":29,"TEXCOORD_0":30},"indices":34,"material":5},{"mode":4,"attributes":{"POSITION":28,"NORMAL":29,"TEXCOORD_0":30},"indices":35,"material":3},{"mode":4,"attributes":{"POSITION":28,"NORMAL":29,"TEXCOORD_0":30},"indices":36,"material":5}]},{"primitives":[{"mode":4,"attributes":{"POSITION":37,"NORMAL":38,"TEXCOORD_0":39},"indices":40,"material":5},{"mode":4,"attributes":{"POSITION":37,"NORMAL":38,"TEXCOORD_0":39},"indices":41,"material":3},{"mode":4,"attributes":{"POSITION":37,"NORMAL":38,"TEXCOORD_0":39},"indices":42,"material":4},{"mode":4,"attributes":{"POSITION":37,"NORMAL":38,"TEXCOORD_0":39},"indices":43,"material":5},{"mode":4,"attributes":{"POSITION":37,"NORMAL":38,"TEXCOORD_0":39},"indices":44,"material":5},{"mode":4,"attributes":{"POSITION":37,"NORMAL":38,"TEXCOORD_0":39},"indices":45,"material":5}]},{"primitives":[{"mode":4,"attributes":{"POSITION":46,"NORMAL":47,"TEXCOORD_0":48},"indices":49,"material":6}]},{"primitives":[{"mode":4,"attributes":{"POSITION":50,"NORMAL":51,"TEXCOORD_0":52},"indices":53,"material":6}]},{"primitives":[{"mode":4,"attributes":{"POSITION":54,"NORMAL":55,"TEXCOORD_0":56},"indices":57,"material":6}]},{"primitives":[{"mode":4,"attributes":{"POSITION":58,"NORMAL":59,"TEXCOORD_0":60},"indices":61,"material":6}]},{"primitives":[{"mode":4,"attributes":{"POSITION":62,"NORMAL":63,"TEXCOORD_0":64},"indices":65,"material":6}]},{"primitives":[{"mode":4,"attributes":{"POSITION":66,"NORMAL":67,"TEXCOORD_0":68},"indices":69,"material":6}]},{"primitives":[{"mode":4,"attributes":{"POSITION":70,"NORMAL":71,"TEXCOORD_0":72},"indices":73,"material":6}]},{"primitives":[{"mode":4,"attributes":{"POSITION":74,"NORMAL":75,"TEXCOORD_0":76},"indices":77,"material":6}]},{"primitives":[{"mode":4,"attributes":{"POSITION":78,"NORMAL":79,"TEXCOORD_0":80},"indices":81,"material":6}]},{"primitives":[{"mode":4,"attributes":{"POSITION":82,"NORMAL":83,"TEXCOORD_0":84},"indices":85,"material":6}]},{"primitives":[{"mode":4,"attributes":{"POSITION":86,"NORMAL":87,"TEXCOORD_0":88},"indices":89,"material":6}]},{"primitives":[{"mode":4,"attributes":{"POSITION":90,"NORMAL":91,"TEXCOORD_0":92},"indices":93,"material":6}]},{"primitives":[{"mode":4,"attributes":{"POSITION":94,"NORMAL":95,"TEXCOORD_0":96},"indices":97,"material":6}]},{"primitives":[{"mode":4,"attributes":{"POSITION":98,"NORMAL":99,"TEXCOORD_0":100},"indices":101,"material":6}]}],"animations":[{"name":"animation","samplers":[{"input":102,"output":103,"interpolation":"STEP"},{"input":104,"output":105,"interpolation":"STEP"},{"input":106,"output":107,"interpolation":"STEP"}],"channels":[{"sampler":0,"target":{"node":1,"path":"scale"}},{"sampler":1,"target":{"node":3,"path":"scale"}},{"sampler":2,"target":{"node":5,"path":"scale"}}]}]}